<?xml version="1.0" encoding="UTF-8" standalone="no"?><!DOCTYPE svg PUBLIC "-//W3C//DTD SVG 1.1//EN" "http://www.w3.org/Graphics/SVG/1.1/DTD/svg11.dtd"><svg width="100%" height="100%" viewBox="0 0 288 288" version="1.1" xmlns="http://www.w3.org/2000/svg" xmlns:xlink="http://www.w3.org/1999/xlink" xml:space="preserve" xmlns:serif="http://www.serif.com/" style="fill-rule:evenodd;clip-rule:evenodd;stroke-linejoin:round;stroke-miterlimit:2;"><g id="femorales"><path d="M165.758,197.93C165.498,197.606 160.524,188.38 159.537,182.808C159.41,182.094 157.014,152.682 157.989,150.378C158.496,149.181 164.622,152.332 164.124,149.812C163.885,148.603 161.681,137.457 165.578,134.487C168.806,132.026 169.42,134.148 169.878,138.172C172.291,159.383 166.082,182.433 166.249,186.055C166.271,186.525 167.235,196.295 165.758,197.93Z" style="fill:#6e6e74;"/><path d="M122.498,197.941C120.156,195.595 123.37,191.499 121.029,179.308C115.847,152.316 117.991,133.854 119.775,133.531C122.044,133.12 126.966,136.129 124.529,147.888C124.509,147.987 122.614,151.989 127.088,150.608C129.12,149.981 130.084,148.742 130.331,150.891C131.196,158.428 130.031,158.393 129.204,178.205C129.15,179.509 129.898,183.189 122.924,197.368C122.898,197.419 122.924,197.368 122.498,197.941Z" style="fill:#6e6e74;"/><path d="M140.957,180.92C140.6,182.833 136.903,202.611 134.327,204.315C133.39,204.935 134.394,196.885 133.35,195.495C127.153,187.242 129.999,186.289 130.489,176.039C131.705,150.599 131.498,148.954 137.597,146.198C139.228,145.461 141.264,143.37 141.322,145.217C141.419,148.325 142.62,164.467 140.957,180.92Z" style="fill:#6e6e74;"/><path d="M147.681,183.341C146.724,176.619 146.765,176.647 146.602,169.823C146.383,160.634 146.088,160.684 146.351,155.763C146.941,144.755 147.133,143.949 147.888,144.462C153.29,148.13 154.373,147.106 155.407,150.11C156.528,153.369 157.672,172.29 157.682,172.797C157.949,185.985 160.639,187.801 156.444,193.522C153.199,197.949 154.381,198.381 154.362,203.894C154.356,205.623 151.966,204.081 147.681,183.341Z" style="fill:#6e6e74;"/></g><path d="M136.291,46.945C133.304,44.889 136.273,40.359 133.326,39.928C132.369,39.789 129.112,34.046 131.662,33.174C135.178,31.972 131.549,29.796 134.727,23.531C138.662,15.775 155.462,13.542 155.261,31.885C155.248,33.052 158.792,33.316 157.879,35.38C156.868,37.665 156.573,39.459 154.421,40.029C153.988,40.144 152.524,50.734 151.918,46.507C151.896,46.353 151.685,36.43 144.129,36.648C136.468,36.868 136.903,45.959 136.291,46.945Z" style="fill:#6e6e74;"/><g id="gluteo"><path id="gluteo-" serif:id="gluteo " d="M127.853,121.878C128.641,121.479 129.467,120.903 132.248,120.182C136.984,118.954 134.193,124.052 142.337,134.859C148.498,143.035 127.525,150.017 125.965,149.354C124.687,148.811 125.517,148.379 125.885,145.202C127.253,133.399 120.606,132.773 120.828,131.412C121.6,126.663 127.1,122.454 127.853,121.878Z" style="fill:#6e6e74;"/><path id="gluteo1" serif:id="gluteo" d="M166.278,128.728C166.396,129 167.658,131.921 167.023,132.367C162.202,135.752 161.475,137.255 162.696,147.925C163.008,150.644 159.164,148.911 156.873,148.101C149.588,145.527 142.631,139.499 144.999,136.051C149.911,128.895 150.022,128.958 153.017,120.852C153.189,120.386 153.716,118.961 159.216,121.243C162.978,122.804 165.877,128.009 166.278,128.728Z" style="fill:#6e6e74;"/></g><path id="romboides-mayor" serif:id="romboides mayor" d="M140.675,90.026C140.308,92.741 129.902,106.659 122.561,92.442C120.801,89.034 120.761,83.605 121.139,78.134C121.427,73.958 128.257,65.529 129.116,69.176C131.492,79.262 138.311,83.875 140.675,90.026Z" style="fill:#6e6e74;"/><path id="romboides-mayor-der" serif:id="romboides mayor der" d="M166.427,90.613C159.838,108.078 146.745,92.257 147.774,89.543C149.395,85.268 156.838,78.97 159.141,69.24C159.935,65.886 166.873,73.053 167.089,78.678C167.471,88.605 166.955,88.584 166.427,90.613Z" style="fill:#6e6e74;"/><g id="trapecios"><path id="trapecio-der" serif:id="trapecio der" d="M144.885,93.494C144.277,93.441 144.58,93.103 144.565,88.412C144.486,63.488 144.337,58.138 153.875,57.712C159.096,57.479 164.297,59.275 163.59,59.728C160.241,61.874 160.02,61.97 158.684,67.574C155.058,82.779 147.597,82.42 144.885,93.494Z" style="fill:#6e6e74;"/><path id="trapecio-izq" serif:id="trapecio izq" d="M143.387,93.756C140.132,81.517 132.699,81.702 129.517,67.318C128.143,61.107 127.363,61.365 124.479,59.662C124.004,59.382 138.402,54.09 141.629,61.394C143.842,66.401 143.358,66.555 143.794,93.263C143.801,93.666 143.818,93.753 143.387,93.756Z" style="fill:#6e6e74;"/></g><g id="antebrazo"><path d="M98.231,111.701C101.383,107.116 101.393,107.111 105.79,103.652C106.542,103.061 109.776,104.068 108.66,105.973C108.629,106.026 107.105,105.328 100.629,126.29C92.752,151.789 105.823,112.592 106.226,111.384C107.07,108.852 112.986,100.727 112.954,103.56C112.91,107.44 111.615,107.034 108.965,114.375C106.591,120.95 98.566,136.598 97.618,136.501C96.034,136.34 95.572,134.515 90.317,134.822C89,134.899 90.682,134.063 95.007,119.01C96.591,113.497 95.83,129.237 96.257,129.229C97.872,129.198 95.597,117.329 98.231,111.701Z" style="fill:#6e6e74;"/><path d="M191.515,129.207C191.628,129.085 191.992,129.398 191.976,128.709C191.959,127.949 191.652,114.573 193.012,119.265C197.302,134.07 198.972,134.875 197.674,134.818C192.918,134.61 193.162,135.777 190.374,136.511C189.25,136.808 180.993,119.421 180.375,117.893C175.726,106.388 175.411,106.518 175.168,105.468C173.272,97.275 180.757,109.354 181.066,109.854C181.45,110.473 191.734,141.008 187.463,126.805C182.775,111.213 180.888,108.424 179.939,107.022C177.236,103.027 182.041,103.537 182.194,103.659C195.61,114.407 189.153,117.826 191.515,129.207Z" style="fill:#6e6e74;"/><path d="M97.684,111.303C96.42,108.664 102.75,96.348 103.291,98.96C103.369,99.336 104.169,103.204 103.713,103.742C100.364,107.688 100.183,107.493 97.684,111.303Z" style="fill:#6e6e74;"/><path d="M189.865,110.835C185.308,103.823 183.548,104.501 183.995,102.222C184.73,98.475 184.931,98.352 185.207,98.5C186.196,99.033 191.471,108.846 190.287,111.272C190.146,111.127 190.006,110.981 189.865,110.835Z" style="fill:#6e6e74;"/></g><path id="lumbar-izq" serif:id="lumbar izq" d="M143.504,97.343C143.582,100.208 144.484,133.216 143.315,133.161C139.921,133.001 138.294,114.573 131.451,111.609C131.208,111.504 129.608,105.06 136.696,97.208C138.214,95.525 141.374,90.913 142.303,93.252C143.197,95.501 143.114,95.499 143.504,97.343Z" style="fill:#6e6e74;"/><path id="lumbar-der" serif:id="lumbar der" d="M145.564,132.553C143.786,134.27 144.749,131.387 144.681,101.665C144.68,100.932 144.654,89.68 147.862,93.067C151.224,96.615 157.187,102.16 157.334,110.858C157.356,112.159 154.819,110.895 152.314,116.572C148.792,124.555 150.106,125.108 145.564,132.553Z" style="fill:#6e6e74;"/><path id="nuca" d="M148.773,39.803L149.002,39.603C149.336,39.965 150.522,41.254 151.044,45.42C151.811,51.539 150.499,52.708 155.837,55.821C160.486,58.531 153.58,55.373 148.753,57.651C144.258,59.773 144.512,68.936 143.87,64.338C142.543,54.84 132.348,57.027 131.417,57.041C130.195,57.06 133.067,55.65 134.047,55.026C139.04,51.843 135.788,45.182 138.846,40.116C140.351,37.623 138.435,49.431 138.442,49.468C138.592,50.27 139.38,49.359 140.306,39.451C140.442,37.996 144.013,36.74 147.075,38.166C149.043,39.082 148.5,46.829 149.127,47.772C150.126,49.274 148.863,40.435 148.773,39.803Z" style="fill:#6e6e74;"/><path d="M132.043,264.759C131.421,270.181 130.234,270.989 124.922,269.651C120.875,268.632 122.231,266.309 118.419,265.083C117.944,264.93 113.718,263.571 112.854,262.254C110.854,259.206 113.837,255.588 117.352,255.479C121.414,255.352 122.525,257.021 124.351,253.379C126.145,249.8 125.25,248.16 129.258,248.175C134.495,248.195 131.502,256.009 132.043,264.759Z" style="fill:#6e6e74;"/><path d="M155.72,255.296C155.717,254.852 155.203,251.05 156.855,249.081C157.695,248.078 158.822,248.158 159.009,248.172C162.782,248.442 162.213,249.599 163.73,253.064C165.447,256.984 166.665,255.352 170.911,255.495C174.151,255.604 176.992,258.702 175.666,261.728C174.914,263.445 170.352,264.908 169.84,265.072C165.577,266.439 166.953,269.245 161.981,269.886C154.55,270.843 157.17,266.563 155.72,255.296Z" style="fill:#6e6e74;"/><path d="M202.909,145.442C205.123,149.55 208.598,155.431 206.327,155.007C205.849,154.918 196.447,138.834 202.727,150.668C203.928,152.931 207.393,158.543 204.987,158.454C203.037,158.382 199.671,147.535 199.26,150.065C199.185,150.527 205.096,160.18 201.262,158.348C200.048,157.767 197.073,148.805 197.009,151.96C197.001,152.372 199.821,157.019 197.752,156.165C196.882,155.807 191.29,145.721 191.248,143.852C191.147,139.333 189.741,138.137 193.888,136.264C201.444,132.851 204.175,141.203 208.807,143.518C213.501,145.863 208.352,146.064 207.71,145.927C203.981,145.133 202.651,143.344 202.909,145.442Z" style="fill:#6e6e74;"/><path d="M83.572,158.234C78.387,160.043 89.681,144.351 85.966,147.898C85.421,148.418 81.592,157.254 80.839,154.407C80.422,152.83 88.142,141.539 83.779,144.882C82.125,146.149 76.125,146.343 77.419,144.451C77.8,143.893 78.881,145.245 83.946,139.099C89.419,132.457 96.757,137.033 96.757,138.181C96.758,143.643 97.145,143.777 94.834,148.688C90.959,156.924 89.919,156.646 89.395,156.127C89.001,155.736 92.11,150.305 90.359,151.505C89.957,151.781 86.779,160.816 85.243,158.155C84.79,157.37 90.139,148.314 88.157,149.826C87.486,150.338 85.313,156.516 83.572,158.234Z" style="fill:#6e6e74;"/><g id="gemelos-pantorrila" serif:id="gemelos pantorrila"><g><path d="M155.335,227.645C148.708,219.221 155.425,211.297 155.396,204.443C155.375,199.344 154.742,195.936 156.539,196.681C158.106,197.33 161.898,198.902 162.034,217.155C162.091,224.811 159.206,229.723 155.335,227.645Z" style="fill:#6e6e74;"/><path d="M165.195,198.506C169.321,206.538 170.617,211.757 170.374,217.697C170.22,221.471 163.371,225.51 163.098,219.047C162.361,201.618 160.29,200.1 161.071,196.308C162.028,191.662 164.659,197.579 165.195,198.506Z" style="fill:#6e6e74;"/></g><path d="M132.753,227.691C122.68,233.089 125.585,194.558 132.519,196.55C133.657,196.877 131.835,203.773 133.662,209.559C134.557,212.394 138.38,221.664 132.753,227.691Z" style="fill:#6e6e74;"/><path d="M123.035,198.493C123.328,198.006 125.392,194.476 125.719,194.38C128.641,193.525 126.276,204.669 125.501,212.29C125.037,216.859 126.409,226.673 118.822,220.326C114.878,214.551 122.229,200.079 123.035,198.493Z" style="fill:#6e6e74;"/></g><path d="M118.235,220.983C122.996,223.433 123.982,242.846 125.13,239.848C125.393,239.16 122.11,225.905 121.812,224.7C121.396,223.022 122.64,224.238 125.741,224.32C127.044,224.354 128.633,231.936 133.096,227.968C130.83,240.274 130.087,242.104 130.972,244.991C131.542,246.851 132.584,248.454 130.82,247.559C128.389,246.325 125.34,248.038 124.501,250.475C124.444,250.64 122.953,254.97 123.353,252.319C123.935,248.462 126.029,247.448 119.485,226.092C118.52,222.945 118.146,223.031 118.235,220.983Z" style="fill:#6e6e74;"/><path d="M155.095,228.492C161.354,230.684 160.597,224.337 162.523,224.316C165.876,224.279 166.773,223.258 166.482,224.441C166.181,225.667 163.234,237.667 163.131,239.851C163.213,239.914 163.296,239.977 163.378,240.04C164.489,238.66 166.125,222.746 169.833,220.93C171.249,220.236 163.082,241.423 164.117,247.993C164.161,248.273 165.794,258.635 164.056,251.534C162.54,245.334 157.414,247.662 156.826,247.929C155.818,248.387 158.15,244.085 157.414,239.869C156.414,234.134 156.356,234.184 155.095,228.492Z" style="fill:#6e6e74;"/><g id="hombros-parte-trasera" serif:id="hombros parte trasera"><path id="hombro-anterior" serif:id="hombro anterior" d="M108.911,76.238C109.559,71.514 109.07,65.353 119.83,60.654C125.887,58.01 129.025,66.024 127.32,67.264C122.877,70.495 123.329,70.919 119.68,74.234C115.763,77.793 109.148,78.168 108.911,76.238Z" style="fill:#6e6e74;"/><path id="hombro-anterior1" serif:id="hombro anterior" d="M166.552,60.108C173.815,63.248 177.832,64.538 179.021,75.971C179.258,78.255 172.075,77.969 168.027,73.982C164.314,70.325 164.46,70.212 160.362,67.042C159.346,66.256 161.344,59.604 166.552,60.108Z" style="fill:#6e6e74;"/></g><g id="tricep"><g id="tricep1" serif:id="tricep"><path d="M115.449,97.871C113.778,100.424 113.637,102.15 108.973,102.299C108.568,102.312 104.751,101.51 104.496,100.795C103.498,98.003 104.251,90.185 106.023,89.834C108.774,89.288 108.67,89.137 111.105,87.79C112.368,87.09 110.47,94.437 114.649,94.789C116.148,94.915 119.775,90.295 118.405,92.731C116.937,95.342 116.894,95.25 115.449,97.871Z" style="fill:#6e6e74;"/><path d="M113.388,85.456C113.692,84.626 116.702,76.419 119.263,76.105C120.611,75.94 121.584,86.764 117.528,91.584C111.398,98.868 113.301,86.041 113.388,85.456Z" style="fill:#6e6e74;"/><path d="M106.633,81.418C107.894,78.792 107.397,77.954 108.973,78.102C114.763,78.649 116.619,76.643 115.922,78.108C115.674,78.63 113.544,83.108 112.628,84.539C112.337,84.994 101.83,96.382 106.633,81.418Z" style="fill:#6e6e74;"/></g><path d="M178.476,102.272C172.949,101.537 174.05,99.712 169.669,92.959C167.725,89.963 170.909,93.361 170.986,93.443C171.395,93.879 176.203,98.456 176.243,88.128C176.247,87.073 178.519,88.883 179.854,89.434C180.881,89.859 183.118,88.711 183.825,94.64C184.515,100.42 184.292,101.998 178.476,102.272Z" style="fill:#6e6e74;"/><path d="M175.116,90.297C174.914,91.356 174.876,97.222 170.205,91.304C167.795,88.249 167.89,86.527 167.744,77.079C167.699,74.165 174.127,79.437 175.166,88.96C175.214,89.403 175.067,89.853 175.116,90.297Z" style="fill:#6e6e74;"/><path d="M181.187,81.109C181.374,81.66 184.992,92.279 178.863,88.009C178.075,87.459 175.029,85.337 172.054,78.115C171.338,76.378 173.115,78.637 179.018,78.088C180.643,77.937 180.103,78.812 181.187,81.109Z" style="fill:#6e6e74;"/></g><g id="oblicuo"><path id="oblicuo1" serif:id="oblicuo" d="M166.227,119.544C166.229,119.553 168.897,128.733 167.161,127.559C165.371,126.348 165.664,121.942 156.851,119.759C155.073,119.318 153.902,120.087 154.35,118.422C154.71,117.085 155.918,110.64 161.404,113.372C164.217,114.773 165.984,118.966 166.227,119.544Z" style="fill:#6e6e74;"/><path id="oblicuo2" serif:id="oblicuo" d="M125.976,121.898C125.777,122.08 125.498,122.16 125.299,122.343C122.5,124.911 119.658,130.44 120.442,126.299C120.706,124.903 121.861,112.745 129.803,112.655C132.214,112.628 134.709,118.955 133.577,119.238C129.852,120.168 128.999,120.156 125.976,121.898Z" style="fill:#6e6e74;"/></g><path id="dorsal" d="M166.252,93.299C165.968,95.203 166.016,95.171 165.692,97.055C163.599,109.209 158.834,111.961 158.561,110.836C155.801,99.457 154.275,98.732 155.211,99.029C161.329,100.971 163.006,98.895 165.766,93.546C165.928,93.464 166.09,93.381 166.252,93.299Z" style="fill:#6e6e74;"/><path id="dorsal1" serif:id="dorsal" d="M122.15,93.188L122.475,93.585C125.657,99.579 127.504,100.691 133.047,99.052C134.096,98.742 131.854,101.684 130.433,107.371C129.77,110.025 130.227,112.39 128.246,110.516C123.482,106.009 121.915,93.744 122.15,93.188Z" style="fill:#6e6e74;"/><path d="M159.867,196.616C158.219,199.846 156.817,195.274 156.735,195.005C156.584,194.514 157.149,194.721 159.373,189.152C159.67,188.409 161.852,192.092 161.312,193.3C160.567,194.967 160.602,194.93 159.867,196.616Z" style="fill:#6e6e74;"/><path d="M127.414,190.947C128.323,189.572 128.352,187.784 128.928,189.33C129.94,192.05 129.943,191.985 131.378,194.456C131.944,195.429 128.745,197.676 128.502,197.103C127.199,194.015 125.925,193.993 127.414,190.947Z" style="fill:#6e6e74;"/><path d="M162.23,110.302C162.712,109.787 163.115,109.201 163.597,108.687C164.69,107.519 166.482,116.694 164.772,115.055C163.222,113.569 163.278,113.596 161.531,112.375C160.387,111.576 161.369,111.409 162.23,110.302Z" style="fill:#6e6e74;"/><path d="M123.597,109.784C124.092,108.146 124.56,108.631 124.643,108.717C124.866,108.949 127.145,111.314 127.055,111.935C127.048,111.978 123.133,115.227 123.032,115.227C122.594,115.228 122.474,114.968 123.597,109.784Z" style="fill:#6e6e74;"/></svg>