<?xml version="1.0" encoding="UTF-8" standalone="no"?><!DOCTYPE svg PUBLIC "-//W3C//DTD SVG 1.1//EN" "http://www.w3.org/Graphics/SVG/1.1/DTD/svg11.dtd"><svg width="100%" height="100%" viewBox="0 0 288 288" version="1.1" xmlns="http://www.w3.org/2000/svg" xmlns:xlink="http://www.w3.org/1999/xlink" xml:space="preserve" xmlns:serif="http://www.serif.com/" style="fill-rule:evenodd;clip-rule:evenodd;stroke-linejoin:round;stroke-miterlimit:2;"><path d="M154.534,26.24C155.254,30.473 153.927,31.166 156.739,33.269C157.944,34.17 157.771,38.804 154.068,39.825C152.972,40.127 154.478,45.556 151.579,46.998C147.079,49.238 143.182,51.438 135.678,46.474C134.295,45.56 134.76,40.048 133.996,39.837C130.429,38.851 129.902,33.907 131.379,33.088C134.703,31.243 131.907,29.582 134.269,24.051C137.192,17.208 150.413,13.666 154.534,26.24Z" style="fill:#6e6e74;"/><g id="cuadriceps-y-region-media-del-muslo" serif:id="cuadriceps y region media del muslo"><g id="cuadricep--pierna" serif:id="cuadricep, pierna"><path id="cuadricep" d="M122.241,160.117C122.336,158.816 123.062,148.85 123.654,143.871C125.393,129.248 123.935,121.106 125.343,127.122C132.084,155.939 133.412,156.754 133.368,163.896C133.239,184.916 127.131,190.283 124.142,194.812C124.092,194.887 123.104,196.385 123.123,195.291C123.419,178.716 121.643,173.805 122.241,160.117Z" style="fill:#6e6e74;"/><path id="cuadricep1" serif:id="cuadricep" d="M156.276,153.905C159.785,140.173 159.702,140.209 162.993,126.853C163.739,123.826 163.739,128.824 163.739,129.006C163.738,149.024 167.006,151.926 165.892,172.278C164.66,194.778 165.814,197.216 164.646,195.743C158.945,188.556 157.614,183.972 157.282,182.83C152.99,168.058 155.753,156.161 156.276,153.905Z" style="fill:#6e6e74;"/><path d="M164.949,122.063C165.083,122.221 165.218,122.379 165.352,122.537C168.083,135.279 169.154,135.029 170.77,147.943C172.159,159.032 172.387,159.203 166.444,182.804C164.832,189.204 168.009,170.471 166.642,155.79C165.094,139.159 164.442,139.212 164.821,122.501C164.821,122.464 164.821,122.501 164.949,122.063Z" style="fill:#6e6e74;"/><path d="M121.932,126.862C122.295,125.364 123.419,120 123.463,122.519C123.749,139.103 123.161,139.045 121.638,155.514C120.223,170.812 123.336,188.336 121.872,183.087C114.63,157.125 115.659,149.197 121.932,126.862Z" style="fill:#6e6e74;"/><path d="M154.204,173.645C154.259,173.999 154.261,174.36 154.316,174.714C155.649,183.355 157.115,183.306 156.017,187.986C154.049,196.376 156.126,204.219 154.113,198.487C153.231,195.977 148.317,181.991 152.962,165.249C153.475,163.399 153.619,167.51 154.204,173.645Z" style="fill:#6e6e74;"/><path d="M133.208,178.769C135.386,166.737 134.191,161.768 135.297,165.294C140.05,180.453 134.862,196.238 134.025,198.785C132.237,204.227 134.116,195.915 132.297,188.259C131.169,183.506 132.129,183.511 133.208,178.769Z" style="fill:#6e6e74;"/></g><path d="M154.542,154.959C152.343,164.014 152.201,163.959 151.28,169.274C150.808,171.994 146.996,152.618 146.907,144.694C146.889,143.068 146.394,140.628 148.441,139.403C155.119,135.409 157.424,133.774 161.476,126.975C164.089,122.59 157.95,142.045 154.542,154.959Z" style="fill:#6e6e74;"/><path d="M129.001,138.434C127.415,132.797 127.311,132.853 126.246,127.124C126.055,126.091 127.476,128.326 127.556,128.452C132.121,135.63 138.88,138.757 140.471,139.887C143.471,142.017 137.886,170.173 137.078,169.485C136.076,168.633 137.964,167.987 129.001,138.434Z" style="fill:#6e6e74;"/></g><g id="pantorrilla-frontal" serif:id="pantorrilla frontal"><path id="pantorrilla-frontal1" serif:id="pantorrilla frontal" d="M132.645,203.445C132.942,207.868 133.034,208.39 133.109,208.814C135.224,220.832 135.033,221.045 131.144,232.624C128.26,241.213 130.278,243.098 131.341,250.988C131.588,252.819 127.176,246.821 126.561,246.032C119.751,237.29 114.262,209.722 126.213,193.678C127.735,191.635 126.555,194.447 126.037,197.722C125.571,200.669 124.949,204.598 126.568,235.019C126.938,241.987 129.082,248.493 129.711,247.747C130.583,246.713 126.318,244.974 127.626,226.921C128.014,221.557 132.238,204.016 132.645,203.445Z" style="fill:#6e6e74;"/><path id="pantorrilla-frontal2" serif:id="pantorrilla frontal" d="M158.412,243.149C158.858,236.003 158.164,236.057 155.468,227.973C151.471,215.986 155.602,212.32 155.427,205.279C155.424,205.164 155.327,201.253 155.938,203.924C161.668,228.96 162.597,233.585 158.633,247.198C157.842,249.914 161.419,245.387 161.805,232.592C162.669,203.917 163.462,203.858 161.544,194.186C160.974,191.312 170.918,203.56 168.825,223.118C166.89,241.201 161.723,246.327 157.524,251.21C155.986,252.999 158.29,243.664 158.412,243.149Z" style="fill:#6e6e74;"/></g><g id="pectoral"><path d="M150.027,63.13C154.092,61.741 156.553,60.236 158.895,61.95C159.951,62.723 167.068,75.652 165.851,77C158.366,85.288 145.345,85.049 144.857,75.181C144.303,63.973 147.519,64.185 150.027,63.13Z" style="fill:#6e6e74;"/><path d="M121.869,74.916C122.403,73.684 122.39,73.687 122.446,73.585C128.108,63.263 128.349,60.17 131.849,61.186C141.91,64.105 142.557,65.106 142.824,70.589C143.818,91.048 126.153,80.442 125.431,79.966C120.201,76.517 121.794,75.187 121.869,74.916Z" style="fill:#6e6e74;"/></g><path d="M101.361,143.625C100.931,144.81 94.516,155.279 93.429,155.065C92.761,154.934 95.811,148.335 94.047,150.687C93.884,150.905 90.107,160.143 88.922,157.115C88.558,156.185 94.609,146.736 92.426,148.289C91.967,148.616 86.656,160.747 85.801,156.617C85.461,154.975 93.158,143.888 90.778,145.546C90.265,145.903 84.949,156.998 84.565,153.074C84.378,151.164 90.418,144.012 88.814,143.45C88.026,143.174 81.623,145.209 82.406,142.542C82.536,142.099 83.241,142.941 87.017,139.061C91.537,134.416 91.659,134.535 93.682,133.758C95.899,132.907 103.008,120.292 102.347,123.328C102.119,124.373 100.94,129.791 100.584,136.584C100.396,140.18 101.948,140.058 101.361,143.625Z" style="fill:#6e6e74;"/><path d="M186.517,143.067C186.644,139.592 187.568,139.724 187.397,136.303C187.069,129.725 186.93,129.766 185.642,123.32C185.043,120.32 192.08,132.968 194.375,133.785C195.073,134.033 197.384,134.856 201.528,139.656C204.119,142.656 205.865,141.297 205.641,142.797C205.295,145.108 200.005,143.278 199.491,143.386C197.129,143.883 203.663,151.045 203.449,153.066C203.039,156.929 197.625,145.84 197.267,145.566C194.639,143.555 202.565,154.994 202.198,156.596C201.245,160.75 196.054,148.62 195.616,148.316C193.376,146.756 199.421,156.114 199.047,157.182C197.969,160.258 194.148,150.729 193.814,150.615C192.42,150.139 194.941,154.441 194.916,154.706C194.749,156.533 192.405,152.977 192.259,152.757C186.941,144.691 186.745,143.939 186.517,143.067Z" style="fill:#6e6e74;"/><path d="M158.464,262.593C157.96,260.391 156.212,254.133 158.483,251.369C161.239,248.017 161.503,248.278 163.846,244.572C164.52,243.506 164.786,247.969 165.786,253.673C166.452,257.475 181.508,266.426 177.788,268.195C168.932,272.408 166.438,268.639 163.966,266.797C161.717,265.121 159.843,266.343 158.464,262.593Z" style="fill:#6e6e74;"/><path d="M130.87,254.779C130.27,263.213 130.381,264.063 125.698,265.987C121.808,267.585 120.792,272.988 110.538,268.224C106.661,266.422 121.802,257.459 122.463,253.704C123.616,247.148 122.814,242.009 125.23,246.04C127.831,250.381 130.719,250.323 130.87,254.779Z" style="fill:#6e6e74;"/><g id="bicep"><path d="M109.467,79.838C110.108,79.453 119.003,74.102 118.704,78.428C118.01,88.469 113.288,100.184 108.056,107.393C106.646,109.336 109.578,102.414 105.881,96.561C105.631,96.164 104.258,93.991 104.467,90.862C104.983,83.116 109.195,80.115 109.467,79.838Z" style="fill:#6e6e74;"/><path d="M180.006,107.36C178.535,104.789 178.498,104.875 176.856,102.438C171.186,94.019 168.834,78.41 169.496,77.364C170.208,76.239 174.454,77.768 174.86,77.915C184.474,81.377 184.419,92.682 182.359,96.228C177.795,104.082 181.981,105.506 180.006,107.36Z" style="fill:#6e6e74;"/><path d="M120.397,84.379C120.343,85.563 120.002,92.959 115.58,98.39C113.228,101.279 118.005,89.539 119.321,80.569C119.338,80.449 119.782,77.42 120.019,79.211C120.074,79.622 120.047,79.593 120.397,84.379Z" style="fill:#6e6e74;"/><path d="M167.647,84.917C167.912,79.526 167.907,79.536 167.932,79.27C168.155,76.919 168.669,80.462 168.686,80.582C169.928,89.147 174.672,100.949 172.448,98.428C168.471,93.918 167.752,86.059 167.647,84.917Z" style="fill:#6e6e74;"/></g><g id="hombros-frontales" serif:id="hombros frontales"><path d="M162.99,67.327C162.826,66.946 161.238,63.249 161.195,62.464C161.128,61.224 164.119,59.416 164.861,59.467C181.474,60.593 179.132,78.673 179.133,78.694C179.152,79.462 178.778,78.324 170.022,75.664C165.89,74.409 165.948,72.822 162.99,67.327Z" style="fill:#6e6e74;"/><path d="M108.94,79.189C108.473,76.729 108.04,63.457 118.62,60.336C124.103,58.718 124.714,60.083 126.136,61.176C127.449,62.186 126.456,64.991 122.545,71.86C120.047,76.249 119.151,75.307 114.306,76.621C112.007,77.244 109.518,78.981 108.94,79.189Z" style="fill:#6e6e74;"/></g><g id="abdomen-recto-abdominal" serif:id="abdomen recto abdominal"><path d="M154.411,117.386C154.189,119.23 152.059,136.923 144.851,138.543C143.642,138.814 144.08,137.838 144.441,123.06C144.569,117.804 144.866,116.28 146.72,115.699C152.172,113.99 154.596,112.706 154.411,117.386Z" style="fill:#6e6e74;"/><path d="M143.308,119.531C143.398,121.051 144.441,138.66 143.217,138.555C136.28,137.96 131.503,115.021 134.584,114.203C135.429,113.979 140.788,115.51 141.822,115.867C143.92,116.591 142.965,117.311 143.308,119.531Z" style="fill:#6e6e74;"/><path d="M152.172,103.244C153.5,103.879 157.354,103.977 154.727,110.293C153.451,113.361 152.48,113.309 146.193,114.905C144.535,115.326 144.513,113.504 144.51,113.319C144.419,105.947 144.43,103.563 145.196,102.861C146.279,101.869 151.628,103.117 152.172,103.244Z" style="fill:#6e6e74;"/><path d="M133.26,110.056C132.712,108.32 132.708,108.333 132.669,108.181C132.332,106.867 130.67,102.389 142.138,102.594C143.911,102.626 143.697,107.745 143.45,113.852C143.391,115.324 141.782,114.893 141.621,114.85C136.643,113.516 135.546,114.665 133.26,110.056Z" style="fill:#6e6e74;"/><path d="M135.056,95.117C135.609,94.819 140.163,92.368 142.686,93.291C144.138,93.822 143.598,99.483 143.513,100.608C143.378,102.416 138.058,100.478 133.797,102.842C132.287,103.68 132.036,102.854 132.244,101.156C132.832,96.337 133.396,96.483 135.056,95.117Z" style="fill:#6e6e74;"/><path d="M147.006,93.137C155.649,94.273 155.334,97.683 155.827,102.768C155.983,104.37 152.882,101.629 149.707,101.531C145.532,101.402 144.619,102.359 144.495,100.616C143.991,93.487 145.052,93.315 145.643,93.22C145.751,93.202 145.744,93.213 147.006,93.137Z" style="fill:#6e6e74;"/><path d="M137.287,92.804C137.102,92.879 136.907,92.928 136.721,93.003C134.239,94.011 132.534,95.919 133.071,93.323C134.485,86.478 133.717,85.135 140.263,82.805C141.519,82.358 143.557,85.923 143.566,87.079C143.592,90.225 144.685,91.444 141.601,91.952C139.393,92.316 139.425,92.256 137.287,92.804Z" style="fill:#6e6e74;"/><path d="M154.238,90.347C155.157,94.419 154.908,94.744 154.6,94.597C150.212,92.51 150.186,92.622 145.365,91.776C142.87,91.338 145.287,81.89 147.799,82.825C152.852,84.706 152.997,85.134 154.238,90.347Z" style="fill:#6e6e74;"/></g><g id="serrato-frontal" serif:id="serrato frontal"><path d="M156.274,94.64C156.108,93.865 154.394,85.842 154.37,84.924C154.349,84.104 154.607,84.037 163.757,80.787C167.079,79.607 164.641,109.443 163.092,105.145C160.932,99.155 158.351,100.63 156.274,94.64Z" style="fill:#6e6e74;"/><path d="M133.399,87.064C131.795,94.886 132.458,95.362 127.046,101.191C125.122,103.264 124.571,107.438 123.839,104.1C123.133,100.883 121.627,80.024 124.009,80.695C128.576,81.983 128.348,82.536 132.912,83.921C134.268,84.332 133.406,87.017 133.399,87.064Z" style="fill:#6e6e74;"/></g><g id="antebrazo"><path d="M184.259,133.1C183.313,131.249 176.724,118.362 174.5,109.014C173.528,104.929 171.976,103.728 172.631,100.86C173.63,96.497 185.534,113.645 186.535,136.038C186.666,138.957 185.415,135.694 184.259,133.1Z" style="fill:#6e6e74;"/><path d="M103.491,122.25C103.74,121.353 105.278,115.832 107.042,111.176C109.622,104.37 114.301,99.864 114.844,100.013C116.914,100.58 113.708,108.005 113.599,108.477C111.536,117.399 109.957,119.627 102.055,137.077C101.564,138.163 100.442,136.537 103.491,122.25Z" style="fill:#6e6e74;"/><path d="M188.837,112.516C190.47,127.703 192.647,127.549 194.214,131.725C196.337,137.377 177.611,112.914 181.482,99.84C182.25,97.25 183.825,98.581 186.097,103.107C188.315,107.526 187.904,107.633 188.837,112.516Z" style="fill:#6e6e74;"/><path d="M94.748,130.055C101.696,113.522 95.986,111.361 104.258,99.241C106.208,96.384 109.52,102.805 103.88,117.049C100.632,125.253 90.756,137.129 94.748,130.055Z" style="fill:#6e6e74;"/></g><g id="oblicuo-frontal" serif:id="oblicuo frontal"><path d="M162.612,108.313C164.072,112.708 166.81,119.742 157.984,129.992C153.377,135.344 149.101,137.089 149.933,135.483C158.34,119.238 153.865,117.31 156.323,114.792C156.399,114.713 158.495,114.202 162.612,108.313Z" style="fill:#6e6e74;"/><path d="M124.387,112.256C125.228,108.423 125.641,108.276 125.809,108.546C128.124,112.289 128.168,112.297 131.774,114.773C132.758,115.449 132.111,124.11 137.07,133.568C140.708,140.506 131.782,131.835 131.362,131.402C121.197,120.894 124.285,112.895 124.387,112.256Z" style="fill:#6e6e74;"/></g><path d="M131.236,188.528C133.401,200.06 131.986,200.11 127.592,221.27C126.92,224.502 125.763,205.758 126.57,199.888C126.977,196.92 129.957,185.345 131.014,187.719C131.128,187.974 131.122,188.272 131.236,188.528Z" style="fill:#6e6e74;"/><path d="M156.301,192.304C156.305,192.283 157.042,185.648 158.284,188.015C163.846,198.622 161.397,218.305 161.287,220.148C161.105,223.199 160.319,219.435 160.299,219.335C156.992,203.498 155.349,203.647 156.301,192.304Z" style="fill:#6e6e74;"/><g id="TRAPECIO-SUPERIOR-FRONTAL" serif:id="TRAPECIO SUPERIOR FRONTAL"><path d="M128.655,60.664C126.614,61.451 126.763,60.444 124.898,59.363C124.465,59.113 124.174,58.987 124.621,58.771C134.202,54.135 134.6,54.168 135.058,54.931C138.196,60.168 144.147,63.477 138.645,62.116C132.39,60.569 131.807,59.68 128.655,60.664Z" style="fill:#6e6e74;"/><path d="M153.209,61.038C152.235,61.294 146.404,63.137 147.022,61.933C147.921,60.182 148.961,61.012 152.744,54.93C153.409,53.86 157.446,56.548 162.49,58.555C164.318,59.282 161.918,59.591 161.11,60.347C160.278,61.125 160.184,61.142 159.13,60.689C156.276,59.462 156.226,60.333 153.209,61.038Z" style="fill:#6e6e74;"/></g><path d="M152.343,50.306C152.417,51.879 154.043,53.152 147.995,59.672C147.821,59.86 144.686,63.24 144.855,60.306C144.947,58.711 146.139,50.777 148.976,49.345C149.178,49.243 151.181,48.231 151.626,48.364C152.336,48.575 152.035,48.82 152.343,50.306Z" style="fill:#6e6e74;"/><path d="M135.557,53.007C135.736,50.258 135.725,50.275 135.75,50.038C136.008,47.641 137.062,48.041 139.088,49.336C142.121,51.276 143.169,59.481 143.193,60.576C143.264,63.69 136.446,57.059 135.557,53.007Z" style="fill:#6e6e74;"/><path d="M154.305,113.584C158.349,109.283 157.614,104.693 156.336,98.979C155.943,97.226 159.881,101.523 160.137,101.802C165.809,107.993 156.541,114.252 154.355,114.017C154.338,113.873 154.322,113.728 154.305,113.584Z" style="fill:#6e6e74;"/><path d="M133.757,113.589C133.664,113.748 133.571,113.907 133.478,114.066C130.244,113.957 123.461,107.163 127.118,102.879C127.43,102.514 131.984,97.18 131.669,98.969C130.617,104.938 129.376,108.596 133.757,113.589Z" style="fill:#6e6e74;"/><path d="M145.387,50.383C146.264,50.539 146.971,49.992 146.651,50.842C145.101,54.966 144.962,54.903 144.306,59.224C143.915,61.794 143.621,56.376 142.05,52.494C141.39,50.863 140.673,50.386 141.614,50.375C141.916,50.371 141.894,50.375 145.387,50.383Z" style="fill:#6e6e74;"/><path d="M142.086,81.977C141.952,81.666 141.33,80.228 143.605,78.021C144.155,77.487 145.978,80.379 146.133,80.624C146.521,81.239 144.906,83.539 144.748,83.764C143.705,85.25 142.556,82.676 142.086,81.977Z" style="fill:#6e6e74;"/><path d="M145.112,63.255C145.924,63.227 145.983,63.112 146.077,63.353C146.184,63.628 146.065,63.594 145.489,64.435C144.469,65.924 144.151,68.002 143.781,67.324C142.852,65.621 143.152,65.522 142.083,63.851C141.421,62.816 143.81,63.408 144.584,63.344C144.762,63.329 144.934,63.27 145.112,63.255Z" style="fill:#6e6e74;"/></svg>